<?xml version="1.0" encoding="UTF-8"?>
<!DOCTYPE svg PUBLIC "-//W3C//DTD SVG 1.1//EN" "http://www.w3.org/Graphics/SVG/1.1/DTD/svg11.dtd">
<svg xmlns="http://www.w3.org/2000/svg" version="1.1" height="175" width="120">

  <g id="diary">
    <rect x="18" y="30" width="90" height="115" fill="none" stroke="#e35a27" stroke-width="4"/>
    <rect x="11" y="35" width="5" height="5" fill="#e35a27" />
    <rect x="11" y="55" width="5" height="5" fill="#e35a27" />
    <rect x="11" y="75" width="5" height="5" fill="#e35a27" />
    <rect x="11" y="95" width="5" height="5" fill="#e35a27" />
    <rect x="11" y="115" width="5" height="5" fill="#e35a27" />
    <rect x="11" y="135" width="5" height="5" fill="#e35a27" />

    <path d="m 17 30, L 100 22 v 10" stroke-width="5" stroke="#e35a27" fill="none"/>
    <path d="m 17 30, L 80 15 v 10" stroke-width="5" stroke="#e35a27" fill="none"/>
  </g>

  <g id="knife" transform="translate(31, 133) rotate(-70)">
    <!-- schaft -->
    <circle cx="10" cy="10" r="10" fill="black"/>
    <rect x="10" y="0" width="30" height="15" />
    <circle cx="10" cy="10" r="3" fill="white" />
    <!-- klinge -->
    <path d="m 42,0 
            h 50
            C 95,0 110, 10 110,25
            C 110,25 90,30 42,28
            Z" fill="lightgray" />
        
    <path d="m 42,28
            C 42,28 90,30 110,25
            C 110,27 90,31 42,29"
            fill="gray"/>
  </g>

  <!-- <g id="text">
      <text x="38" y="165" font-family="tahoma">kookary</text>
  </g> -->
</svg>